<svg xmlns="http://www.w3.org/2000/svg" viewBox="0 0 1024 1024" fill="none">
    <path d="M284.753 218.747C300.676 218.534 317.408 218.515 333.372 218.682C350.929 218.865 370.521 215.358 384.091 228.723C388.785 233.344 392.086 239.192 393.617 245.599C395.277 252.434 394.746 265.79 394.725 273.431L394.595 316.609C394.663 330.684 397.696 339.861 407.998 350.002C420.361 361.951 432.788 373.832 445.28 385.646C455.401 395.377 471.254 412.837 484.718 416.903C503.845 422.68 532.975 422.994 550.34 411.801C557.14 407.417 563.98 400.345 569.895 394.655L594.325 371.077C602.625 363.052 611.48 355.035 619.25 346.563C629.2 335.719 629.115 322.258 629.085 308.717L629 276.273C628.955 259.216 626.575 241.988 639.53 229.149C651.98 216.805 665.69 218.715 681.91 218.695L710.7 218.66L730.37 218.656C744.465 218.662 755.345 218.495 765.89 229.123C774.915 238.238 776.34 249.162 776.285 261.34C776.185 284.432 776.49 307.505 776.205 330.573C775.9 338.959 773.205 346.589 767.795 353.045C766.72 354.33 765.55 355.533 764.295 356.645C752.83 366.795 740.385 365.529 726.265 365.503L700.3 365.447C659.05 365.358 658.675 368.081 630.93 397.285L573.87 457.549C567.71 464.047 549.98 483.382 543.77 487.696C535.86 493.24 526.635 496.611 517.02 497.474C505.93 498.476 494.805 496.003 485.186 490.398C475.45 484.639 463.521 470.842 455.401 462.223L404.192 407.945C394.845 398.033 385.63 387.919 375.815 378.481C360.298 363.562 341.937 365.405 322.266 365.457L295.396 365.53C282.445 365.562 270.552 366.033 260.168 356.773C253.564 350.885 248.664 341.413 248.502 332.5C248.106 310.588 248.427 288.646 248.317 266.729C248.3 260.575 247.942 252.357 249.151 246.481C250.405 240.446 253.243 234.855 257.375 230.282C265.059 221.835 273.718 219.195 284.753 218.747Z" fill="#FEFEFE"/>
</svg>
