<svg xmlns="http://www.w3.org/2000/svg" viewBox="0 0 1024 1024" fill="none">
    <path d="M505.85 521.625C524.74 519.95 539.445 525.615 552.315 539.535C561.76 549.75 571.165 560.03 580.545 570.295L627.81 622.195C652.65 649.785 649.395 650.005 686.27 649.945L722.935 649.85C739.965 649.79 755.61 647.72 767.86 662.095C777.45 673.345 776.34 684.605 776.33 698.45L776.28 725.975C776.28 738.44 776.49 751.805 775.985 764.085C775.1 773.25 770.065 781.625 763.285 787.4C752.665 796.455 741.075 795.125 727.955 795.14L698.25 795.13C686.145 795.125 672.615 795.47 660.815 794.855C645.165 794.04 632.115 781.415 629.69 766.13C628.67 759.685 628.975 751.45 628.995 744.585L629.075 716.77C629.145 688.89 629.55 685.735 609.555 665.77L590.995 647.295L568.61 625.05C552.24 608.845 545.32 601.105 521.15 598.55C487.662 598.33 481.087 600.175 457.121 624.04L437.156 643.925L416.479 664.365C397.331 683.295 394.599 685.82 394.639 712.995L394.727 745.265C394.766 765.555 395.353 781.86 374.1 792.22C366.058 796.14 353.608 795.085 344.758 795.14C326.045 795.26 307.308 795.095 288.593 795.145C278.923 795.17 271.502 794.785 263.32 789.13C255.778 783.905 250.614 775.905 248.959 766.88C247.765 760.225 248.397 733.84 248.391 725.085L248.309 697.44C248.295 691.765 248.033 684.465 248.877 679.02C249.683 673.725 251.708 668.69 254.793 664.315C262.837 652.98 274.397 649.805 287.594 649.81L334.581 649.9C341.673 649.915 353.364 650.285 360.16 649.72C363.149 649.47 366.097 648.855 368.939 647.895C379.144 644.485 397.836 621.38 405.648 612.81L457.771 555.59C463.616 549.17 473.03 538.04 479.39 532.98C485.269 528.25 492.086 524.82 499.39 522.92C500.415 522.67 501.445 522.445 502.48 522.25C503.6 522.03 504.725 521.825 505.85 521.625Z" fill="#FEFEFE"/>
</svg>
